<?xml version="1.0" encoding="UTF-8" standalone="no"?>
<!-- Created with Inkscape (http://www.inkscape.org/) -->

<svg
   xmlns:dc="http://purl.org/dc/elements/1.1/"
   xmlns:cc="http://creativecommons.org/ns#"
   xmlns:rdf="http://www.w3.org/1999/02/22-rdf-syntax-ns#"
   xmlns:svg="http://www.w3.org/2000/svg"
   xmlns="http://www.w3.org/2000/svg"
   xmlns:sodipodi="http://sodipodi.sourceforge.net/DTD/sodipodi-0.dtd"
   xmlns:inkscape="http://www.inkscape.org/namespaces/inkscape"
   width="210mm"
   height="297mm"
   viewBox="0 0 210 297"
   version="1.1"
   id="svg8"
   inkscape:version="0.92.3 (2405546, 2018-03-11)"
   sodipodi:docname="drawing-1.svg">
  <defs
     id="defs2" />
  <sodipodi:namedview
     id="base"
     pagecolor="#ffffff"
     bordercolor="#666666"
     borderopacity="1.0"
     inkscape:pageopacity="0.0"
     inkscape:pageshadow="2"
     inkscape:zoom="0.49497475"
     inkscape:cx="-74.487766"
     inkscape:cy="827.10413"
     inkscape:document-units="mm"
     inkscape:current-layer="layer1"
     showgrid="false"
     inkscape:window-width="1920"
     inkscape:window-height="1137"
     inkscape:window-x="-8"
     inkscape:window-y="-8"
     inkscape:window-maximized="1" />
  <metadata
     id="metadata5">
    <rdf:RDF>
      <cc:Work
         rdf:about="">
        <dc:format>image/svg+xml</dc:format>
        <dc:type
           rdf:resource="http://purl.org/dc/dcmitype/StillImage" />
        <dc:title></dc:title>
      </cc:Work>
    </rdf:RDF>
  </metadata>
  <g
     inkscape:label="Layer 1"
     inkscape:groupmode="layer"
     id="layer1">
    <path
       inkscape:connector-curvature="0"
       id="path830"
       d="M 27.07501,106.30871 V 29.685375 h 74.803 74.803 v 76.623335 76.62333 h -74.803 -74.803 z"
       style="fill:#ffffff;stroke-width:0.08466667"
       inkscape:export-xdpi="300.103"
       inkscape:export-ydpi="300.103" />
    <path
       inkscape:connector-curvature="0"
       id="path828"
       d="M 27.075009,106.30871 V 29.685376 h 74.803001 74.803 v 76.623334 76.62333 h -74.803 -74.803001 z m 80.729671,52.12302 c 5.887,-0.60373 10.17552,-1.61323 14.90133,-3.50772 8.39132,-3.36392 16.0391,-8.94369 22.02539,-16.0696 6.94081,-8.26212 11.3523,-18.42693 12.34259,-28.43937 0.34698,-3.50818 0.39949,-10.38759 0.0995,-13.038661 -0.3294,-2.911185 -1.39728,-7.684733 -2.42441,-10.837335 -2.69001,-8.256627 -7.33874,-15.685229 -13.72269,-21.928667 -6.78799,-6.63858 -14.58998,-11.11899 -23.95741,-13.757906 -5.4524,-1.536004 -8.67889,-1.93209 -14.96557,-1.837178 -4.52011,0.06824 -7.32711,0.357569 -11.23378,1.157905 -8.44341,1.729749 -16.65111,5.715939 -23.40864,11.368751 -9.73358,8.142334 -16.42211,19.196449 -18.83917,31.135425 -1.38484,6.840365 -1.36642,14.279356 0.0534,21.589996 2.48407,12.79004 9.19715,24.01661 19.16672,32.0533 9.17985,7.40007 19.294731,11.44598 30.64934,12.25962 0.23283,0.0167 2.11878,0.0213 4.19101,0.0104 2.76075,-0.0147 4.1297,-0.0571 5.12233,-0.15891 z m -9.99067,-1.0387 c -7.9822,-0.57445 -16.304319,-3.35488 -23.549219,-7.86781 -8.58818,-5.34968 -15.371921,-12.75231 -19.779661,-21.58418 -2.91155,-5.83391 -4.535529,-11.28469 -5.45946,-18.32424 -0.22288,-1.69814 -0.2286,-1.85096 -0.22845,-6.10209 1.7e-4,-4.734151 0.0221,-5.049761 0.5945,-8.551336 2.40748,-14.72791 10.70873,-27.473393 23.48796,-36.062676 6.43669,-4.326289 14.08131,-7.264875 21.80166,-8.380552 6.36394,-0.919658 13.00263,-0.678791 19.43212,0.705043 8.13055,1.74996 15.87412,5.479907 22.30496,10.743922 9.72474,7.960265 16.42961,19.160496 18.91527,31.597263 0.2868,1.43496 0.63665,3.648835 0.776,4.910675 0.14194,1.28525 0.2029,7.598371 0.0917,9.491691 -0.30089,5.12055 -1.70446,11.01534 -3.87855,16.2893 -0.69077,1.67566 -2.26759,4.86369 -3.16171,6.39233 -4.62443,7.90618 -11.11175,14.45609 -19.06393,19.24785 -5.60263,3.37598 -12.59821,5.99129 -18.69414,6.98883 -2.88374,0.4719 -3.34763,0.50048 -8.42433,0.51908 -2.60774,0.01 -4.93184,0.004 -5.16467,-0.0131 z m 9.271,-1.43021 c 5.5435,-0.48237 10.95715,-1.78691 15.60174,-3.75962 1.61052,-0.68404 4.92234,-2.35765 6.2846,-3.17589 6.5486,-3.93342 13.07893,-10.17661 17.37976,-16.61557 4.50147,-6.73934 7.10924,-13.90046 8.36481,-22.97037 0.18355,-1.3259 0.26313,-6.80979 0.12836,-8.84553 -0.34339,-5.187006 -1.60577,-10.931324 -3.46129,-15.750129 -1.73639,-4.509445 -3.77601,-8.175716 -6.83375,-12.283862 -2.78161,-3.737165 -6.45194,-7.496342 -10.07456,-10.318407 -7.10025,-5.531193 -16.33488,-9.324975 -25.44233,-10.452253 -2.66839,-0.330281 -3.5774,-0.38293 -6.64634,-0.38495 -3.20178,-0.0021 -4.251299,0.06229 -6.983149,0.428472 -16.886491,2.263508 -32.176441,13.237826 -39.8585,28.608333 -3.10914,6.220857 -4.82826,12.68393 -5.28109,19.854326 -0.11871,1.8798 -0.0475,6.29003 0.13056,8.08567 0.81974,8.26638 3.21741,15.57619 7.40105,22.56367 2.113239,3.5295 4.597469,6.69214 7.718799,9.82666 3.31623,3.33027 6.43147,5.76851 10.287,8.05148 6.888551,4.07892 13.935021,6.34485 22.309661,7.1741 1.31035,0.12975 7.347649,0.10544 8.974669,-0.0361 z m -10.26995,-2.83185 c -8.49046,-1.06481 -15.79898,-3.87362 -22.77159,-8.75161 -3.91212,-2.73688 -7.84223,-6.48022 -10.86827,-10.35174 -0.9475,-1.21223 -2.81387,-4.01685 -3.62784,-5.45158 -1.83327,-3.23141 -3.58063,-7.33935 -4.64579,-10.922 -1.01257,-3.40576 -1.57076,-6.53222 -1.84157,-10.31468 -0.12587,-1.7582 -0.0516,-6.91957 0.12637,-8.777641 0.84336,-8.80648 4.10882,-17.164351 9.49388,-24.299342 2.25591,-2.988999 5.32301,-6.218224 8.16743,-8.599165 2.95978,-2.477514 7.52066,-5.350401 11.09186,-6.986745 4.31341,-1.976428 9.76813,-3.632915 13.20747,-4.010831 3.16903,-0.348216 11.98522,-0.348294 14.68967,-1.7e-4 2.25023,0.289689 6.51016,1.395567 9.18633,2.384775 11.23349,4.152283 20.21105,11.422632 26.01075,21.064429 1.96437,3.265704 3.35574,6.302385 4.597,10.033 0.9088,2.731437 1.41652,4.825024 1.89927,7.831669 0.33895,2.11101 0.41683,2.94924 0.52311,5.630331 0.16711,4.21561 -0.0457,7.41323 -0.74116,11.13366 -1.60236,8.57281 -5.18872,16.18166 -10.81472,22.94467 -1.24053,1.49123 -4.2801,4.55388 -5.72625,5.76974 -3.39747,2.85642 -6.55932,4.93385 -10.287,6.75886 -5.25413,2.57234 -10.64578,4.1703 -16.46766,4.88065 -0.89383,0.10906 -2.10277,0.14506 -5.54567,0.16514 -3.8838,0.0227 -4.55034,0.007 -5.65562,-0.13146 z m 8.32262,-1.35901 c 4.86206,-0.30146 9.24388,-1.13944 13.16567,-2.51779 8.9312,-3.13897 17.47913,-9.56567 23.33662,-17.54546 4.56724,-6.22206 7.67553,-14.13814 8.62289,-21.96045 0.44043,-3.63663 0.4566,-8.31272 0.0401,-11.609881 -1.20409,-9.533301 -4.9171,-18.004437 -11.11458,-25.357669 -1.2223,-1.450236 -4.36826,-4.572535 -5.85675,-5.812694 -6.72198,-5.600519 -14.18406,-9.084708 -22.44771,-10.48126 -1.88581,-0.3187 -3.37887,-0.459601 -6.01062,-0.567222 -12.214299,-0.499485 -22.955659,2.905426 -31.984449,10.138774 -3.28089,2.628459 -6.62175,6.03978 -9.02964,9.220069 -3.56431,4.707684 -6.84136,11.594301 -8.15857,17.144997 -0.85492,3.602605 -1.06689,5.858315 -1.06615,11.345336 7.6e-4,5.63378 0.19246,7.58194 1.09454,11.12312 2.84691,11.17576 8.88824,20.46798 17.57672,27.03491 4.38009,3.31056 9.06017,5.77943 14.26354,7.52441 4.05228,1.35895 7.52973,2.0322 12.14967,2.35225 0.948409,0.0657 4.151839,0.0471 5.418669,-0.0314 z m -6.64634,-1.24025 c -10.60842,-0.68022 -20.73853,-5.3789 -28.7701,-13.34451 -6.01382,-5.96443 -9.66317,-11.88496 -12.06643,-19.57599 -0.82436,-2.63815 -1.14666,-4.07014 -1.448359,-6.4351 -0.367271,-2.87886 -0.458731,-4.50077 -0.460701,-8.1694 -0.002,-3.709101 0.0859,-5.106621 0.46041,-7.323666 0.95618,-5.659933 3.958901,-13.192261 7.0879,-17.78 1.580591,-2.317463 3.12595,-4.099757 6.317341,-7.285896 4.63722,-4.629599 7.129349,-6.480775 11.889129,-8.831346 4.65397,-2.29832 9.03991,-3.628303 14.704811,-4.459062 2.918859,-0.428051 8.930669,-0.496159 11.684009,-0.132368 3.77264,0.498467 6.29454,1.047752 9.144,1.991623 7.2369,2.397189 13.42235,6.165799 18.63058,11.351049 7.48957,7.456513 12.08717,16.892974 13.45816,27.622565 0.38236,2.992491 0.37934,8.423641 -0.007,11.662761 -1.36254,11.4385 -7.39586,22.32577 -16.63057,30.01029 -7.47383,6.21922 -16.85314,10.00881 -26.40157,10.66722 -1.15576,0.0797 -6.496439,0.10208 -7.592109,0.0318 z m 22.06309,-23.03516 c 0.004,-1.33879 0.0327,-2.61112 0.0635,-2.82739 l 0.0561,-0.39323 1.00743,0.40835 c 1.97883,0.80211 3.32633,0.61224 4.59052,-0.64682 2.22439,-2.21535 1.66205,-6.29131 -1.05302,-7.63256 -0.63156,-0.31199 -0.65806,-0.31713 -1.61983,-0.31403 -0.93386,0.003 -1.0172,0.0183 -1.85621,0.34138 l -0.87845,0.33824 -0.46698,-0.23555 c -0.45029,-0.22713 -0.51347,-0.23556 -1.76739,-0.23556 h -1.3004 v 6.75922 c 0,3.71758 0.0254,6.78463 0.0564,6.81567 0.031,0.031 0.75494,0.0565 1.60866,0.0565 h 1.55222 l 0.007,-2.43417 z m 1.47425,-4.97345 c -0.0466,-0.0155 -0.18874,-0.0512 -0.31595,-0.0792 -0.1272,-0.028 -0.37131,-0.17391 -0.54245,-0.32418 -1.25826,-1.10476 -0.49271,-3.30265 1.22103,-3.50561 0.54343,-0.0644 1.24257,0.23486 1.57883,0.67571 0.71669,0.93963 0.71898,2.27551 0.005,2.83723 -0.40485,0.31846 -1.50676,0.54269 -1.94633,0.39605 z m -41.702609,2.33453 c 0.0381,-0.0616 0.087,-1.22185 0.10865,-2.57831 0.0217,-1.35644 0.0672,-2.53 0.10107,-2.60789 0.0339,-0.0779 0.12422,-0.16563 0.20071,-0.19499 0.25281,-0.097 4.09938,-0.06 4.19997,0.0404 0.0613,0.0612 0.10748,0.96715 0.1359,2.66743 0.0325,1.94425 0.0698,2.60151 0.1524,2.68411 0.17113,0.17112 2.870219,0.1552 2.9866,-0.0176 0.13875,-0.20606 -0.0985,-13.2496 -0.24358,-13.39307 -0.0909,-0.0899 -1.05855,-0.22907 -2.0282,-0.29176 l -0.86792,-0.0561 v 2.713 2.713 l -1.232401,0.0616 c -1.488969,0.0744 -3.138589,0.0215 -3.264819,-0.1047 -0.0602,-0.0602 -0.10815,-1.00515 -0.13868,-2.73499 l -0.0466,-2.64296 -0.854891,0.0581 c -0.95481,0.065 -1.90992,0.1843 -1.972029,0.24641 -0.117341,0.11733 -0.35724,12.85762 -0.25015,13.28431 0.0486,0.19368 0.10793,0.22726 0.45757,0.25898 0.85735,0.0778 2.4848,0.011 2.55644,-0.10496 z m 13.36673,-0.0403 c 0.12438,-0.12424 0.147089,-0.4541 0.18421,-2.67478 0.0276,-1.65095 0.0743,-2.56494 0.13405,-2.62462 0.11704,-0.11684 3.66888,-0.12685 3.78507,-0.0107 0.0454,0.0455 0.104189,1.21373 0.13405,2.66571 0.0402,1.95544 0.0801,2.61157 0.16363,2.69475 0.12542,0.12482 2.831809,0.15922 2.953529,0.0375 0.0378,-0.0378 0.0789,-3.13769 0.0913,-6.88876 l 0.0226,-6.82012 -1.05005,0.0404 c -1.251249,0.0482 -1.642839,0.19411 -1.802709,0.67168 -0.054,0.16122 -0.17495,1.25673 -0.26885,2.43445 -0.0939,1.17773 -0.18587,2.15646 -0.20437,2.17497 -0.0728,0.0728 -2.76421,0.14099 -3.29953,0.0836 -0.67857,-0.0728 -0.60229,0.15139 -0.78525,-2.30795 -0.14379,-1.93282 -0.23929,-2.48782 -0.46291,-2.69019 -0.23248,-0.2104 -0.96061,-0.38039 -1.88713,-0.4406 l -0.8255,-0.0536 0.0106,5.36795 c 0.006,2.95238 0.0344,6.05376 0.0635,6.89196 l 0.0529,1.524 0.42333,0.0556 c 0.23284,0.0306 0.87384,0.0454 1.42446,0.033 0.80216,-0.0181 1.02932,-0.0507 1.143,-0.16428 z m 11.398139,0.0234 c 0.55331,-0.10134 0.74766,-0.30012 1.23207,-1.26009 0.22323,-0.44239 0.4998,-0.89177 0.6146,-0.99863 0.3045,-0.28345 1.122,-0.38235 2.81497,-0.34055 1.91425,0.0473 1.96026,0.0689 2.556,1.20275 0.5481,1.04316 0.76948,1.28017 1.31878,1.41195 0.46601,0.11179 1.56561,0.0623 1.96175,-0.0883 0.2118,-0.0805 0.23296,-0.12207 0.19168,-0.37642 -0.13885,-0.85563 -3.6819,-9.5513 -4.64252,-11.39411 -0.71946,-1.38015 -1.27229,-1.84627 -2.08156,-1.75505 -0.87921,0.0991 -1.11728,0.56467 -4.44754,8.69772 -1.53791,3.75583 -1.93483,4.84133 -1.82059,4.97898 0.0754,0.0908 0.28429,0.1028 0.98948,0.0568 0.49167,-0.0321 1.08247,-0.0928 1.31288,-0.13503 z m 2.8116,-5.03969 c -0.21701,-0.0638 -0.15729,-0.321 0.44139,-1.90114 0.66407,-1.75273 0.96813,-2.45262 1.0681,-2.45857 0.0997,-0.006 0.42989,0.781 0.83269,1.9844 0.51521,1.53923 0.58295,2.16596 0.24886,2.30235 -0.18304,0.0747 -2.37499,0.13645 -2.59104,0.073 z m 1.25605,-13.05867 0.93058,-0.0527 0.054,-0.381 c 0.0297,-0.20955 0.0985,-1.1811 0.15294,-2.159 0.45919,-8.252721 0.75831,-10.606436 2.09246,-16.465138 0.98261,-4.314973 1.18068,-5.976458 1.1044,-9.264348 -0.0271,-1.169216 -0.0909,-2.430647 -0.14172,-2.80318 -0.20519,-1.504055 -1.17627,-5.823562 -1.34777,-5.995058 -0.0388,-0.03878 -1.28513,-0.104636 -2.76966,-0.146337 -3.70382,-0.10404 -15.69137,-0.206913 -15.969739,-0.137046 -0.279841,0.07023 -0.27292,0.04674 -0.86381,2.934107 -0.71281,3.48313 -0.756,3.874309 -0.761861,6.900334 -0.006,3.304445 0.0395,3.662891 1.058331,8.259556 1.279879,5.774634 1.80543,9.706239 2.025239,15.15077 0.13306,3.29563 0.2062,3.92585 0.47876,4.12515 0.117321,0.0858 1.4812,0.10596 6.58761,0.0974 3.54181,-0.006 6.85841,-0.0345 7.37023,-0.0635 z M 97.48326,104.29196 C 97.3207,103.9776 97.129231,102.61087 97.01259,100.9323 96.634591,95.492324 96.49384,94.540014 95.40461,90.052641 94.42483,86.016179 94.26646,85.204325 93.99246,82.81364 93.624661,79.604603 93.93296,74.992565 94.70281,72.187974 l 0.15105,-0.550334 6.34841,0.02071 c 5.73625,0.01872 8.53744,0.09391 9.0823,0.243803 0.10664,0.02934 0.24726,0.156537 0.31248,0.282669 0.19667,0.38031 0.55442,2.779645 0.67901,4.55398 l 0.055,0.783167 h -2.99809 c -1.64895,0 -5.06719,0.02535 -7.59611,0.05633 l -4.598019,0.05634 0.0493,2.631831 c 0.0636,3.396029 0.10167,3.653375 1.36196,9.212029 0.396539,1.748974 0.65982,3.257305 0.81698,4.680465 0.12904,1.16849 0.19872,7.175606 0.10095,8.702676 -0.0725,1.13231 -0.0989,1.27195 -0.27602,1.4605 -0.26615,0.28331 -0.55296,0.27109 -0.70876,-0.0302 z"
       style="fill:#0000ff;stroke-width:0.08466667"
       sodipodi:nodetypes="ccccccccccscsccsssssscscccccscsscssssccccsscccccscscscscscsscccccsccccccsccccsscccccscccsscccccssccsssscsssscccccsscccscsssssccscccccccccccccscscsccccccccccccccccccccccccccccccccccccccccsccccsccsccccccccccccccccccccscccccscscccccscscccscscccccccccsccccccccscccsccccc"
       inkscape:export-xdpi="300.103"
       inkscape:export-ydpi="300.103" />
    <text
       xml:space="preserve"
       style="font-style:normal;font-weight:normal;font-size:5.64444447px;line-height:1.25;font-family:sans-serif;letter-spacing:0px;word-spacing:0px;fill:#000000;fill-opacity:1;stroke:none;stroke-width:0.26458332"
       x="68.063049"
       y="137.73167"
       id="text836"
       inkscape:export-xdpi="300.103"
       inkscape:export-ydpi="300.103"><tspan
         sodipodi:role="line"
         id="tspan834"
         x="68.063049"
         y="137.73167"
         style="font-style:normal;font-variant:normal;font-weight:bold;font-stretch:normal;font-size:12.69999981px;font-family:'Berlin Sans FB Demi';-inkscape-font-specification:'Berlin Sans FB Demi Bold';fill:#ffffff;stroke-width:0.26458332">Colo Springs</tspan></text>
  </g>
</svg>
