<?xml version="1.0" encoding="UTF-8" standalone="no"?>
<!-- Created with Inkscape (http://www.inkscape.org/) -->

<svg
   xmlns:dc="http://purl.org/dc/elements/1.1/"
   xmlns:cc="http://creativecommons.org/ns#"
   xmlns:rdf="http://www.w3.org/1999/02/22-rdf-syntax-ns#"
   xmlns:svg="http://www.w3.org/2000/svg"
   xmlns="http://www.w3.org/2000/svg"
   xmlns:sodipodi="http://sodipodi.sourceforge.net/DTD/sodipodi-0.dtd"
   xmlns:inkscape="http://www.inkscape.org/namespaces/inkscape"
   width="744.09448819"
   height="1052.3622047"
   id="svg2"
   version="1.1"
   inkscape:version="0.48.2 r9819"
   sodipodi:docname="logo.svg"
   inkscape:export-filename="C:\Users\Christian\Dropbox\CLD\Orange House\Happy Hour\Boulder\img\logo.png"
   inkscape:export-xdpi="300.103"
   inkscape:export-ydpi="300.103">
  <defs
     id="defs4" />
  <sodipodi:namedview
     id="base"
     pagecolor="#ffffff"
     bordercolor="#666666"
     borderopacity="1.0"
     inkscape:pageopacity="0.0"
     inkscape:pageshadow="2"
     inkscape:zoom="0.34863281"
     inkscape:cx="859.25329"
     inkscape:cy="597.56962"
     inkscape:document-units="px"
     inkscape:current-layer="layer1"
     showgrid="false"
     inkscape:window-width="1280"
     inkscape:window-height="657"
     inkscape:window-x="-8"
     inkscape:window-y="-8"
     inkscape:window-maximized="1" />
  <metadata
     id="metadata7">
    <rdf:RDF>
      <cc:Work
         rdf:about="">
        <dc:format>image/svg+xml</dc:format>
        <dc:type
           rdf:resource="http://purl.org/dc/dcmitype/StillImage" />
        <dc:title></dc:title>
      </cc:Work>
    </rdf:RDF>
  </metadata>
  <g
     inkscape:label="Layer 1"
     inkscape:groupmode="layer"
     id="layer1">
    <path
       inkscape:connector-curvature="0"
       id="path3000"
       d="m -188.08263,417.62828 0,-723.5 706.5,0 706.50003,0 0,723.5 0,723.50002 -706.50003,0 -706.5,0 0,-723.50002 z"
       style="fill:#cfb87c;fill-opacity:1" />
    <path
       inkscape:connector-curvature="0"
       id="path2998"
       d="m -188.08263,417.62828 0,-723.5 706.5,0 706.50003,0 0,723.5 0,723.50002 -706.50003,0 -706.5,0 z m 752,493.00512 c 54.96651,-4.4024 93.57001,-12.5091 139,-29.19002 93.08391,-34.1782 178.4118,-98.6485 239.9747,-181.3151 49.7732,-66.83542 82.87663,-145.25181 94.56163,-224 6.3525,-42.8113 7.2736,-117.26547 1.8991,-153.5 -1.8777,-12.65934 -8.6083,-45.47064 -12.4104,-60.5 C 993.70747,130.75412 905.25727,14.93474 784.84643,-54.87959 746.08608,-77.35288 706.04948,-93.85475 657.6316,-107.31368 c -44.77487,-12.44627 -76.59733,-16.55287 -128.21423,-16.54568 -86.78317,0.0121 -163.51335,17.32126 -235.5,53.12526 C 237.64985,-42.74833 192.66464,-9.23709 146.60697,39.0032 81.81497,106.86561 35.83687,193.20174 16.4812,283.34901 3.78031,342.50225 2.22244,407.26355 11.97609,470.62828 c 20.33355,132.09719 86.19217,246.6085 188.44128,327.6512 84.25739,66.7824 174.7168,103.29442 278.26489,112.31542 20.68078,1.8017 62.98141,1.8208 85.23511,0.039 z m -75.5,-10.1569 c -26.50147,-1.5442 -44.80247,-3.8717 -66.5,-8.4576 -77.6727,-16.41632 -151.42985,-51.32872 -214,-101.29532 -58.38359,-46.6234 -103.70966,-102.25192 -136.55641,-167.5953 -29.93543,-59.55176 -46.45875,-117.47198 -53.63213,-188 -1.67049,-16.42412 -1.66612,-71.63998 0.007,-88 7.73002,-75.58695 28.14706,-140.7308 63.93659,-204 51.93146,-91.80517 139.58006,-171.04744 236.74495,-214.03888 86.85548,-38.42996 178.92489,-51.50597 273.99254,-38.91336 120.55573,15.96875 228.60676,73.0526 309.39016,163.45224 64.1038,71.73458 106.58393,159.08725 123.52153,254 5.826,32.64684 7.0388,47.98116 6.9992,88.5 -0.039,40.42641 -1.1083,53.76813 -6.957,86.83706 -32.48753,183.68645 -165.27543,335.10224 -345.94643,394.47674 -40.52417,13.31752 -74.35686,20.10262 -113,22.66182 -13.36892,0.8854 -64.96861,1.1319 -78,0.3726 z m 73.19553,-13.3989 c 54.97737,-4.51132 103.54403,-15.64942 149.04964,-34.18272 16.42382,-6.6891 48.67948,-22.7667 62.70475,-31.2549 66.01538,-39.9528 126.82078,-98.6733 168.79928,-163.0117 39.8183,-61.02734 64.08893,-128.75786 74.89333,-209 2.004,-14.88374 2.2905,-21.23253 2.3013,-51 0.013,-34.37751 -0.5046,-42.48419 -4.5612,-71.5 -9.591,-68.60139 -32.94933,-134.94155 -66.54663,-189 -40.1163,-64.54745 -89.8878,-116.58924 -149.836,-156.67068 -61.52916,-41.13847 -136.81814,-69.03328 -212.5,-78.73195 -41.32707,-5.29608 -85.27972,-5.30105 -125.5,-0.01419 C 269.722,-72.22207 106.79408,65.03965 51.00545,247.62828 c -23.74618,77.71806 -27.41997,162.84355 -10.59512,245.5 12.73991,62.58812 38.66486,124.15136 75.16828,178.5 27.83065,41.4361 67.35506,83.4834 107.33876,114.1905 42.47609,32.6212 91.31752,58.9297 141.80238,76.382 33.01543,11.4133 75.75701,20.5878 111.19762,23.86872 6.325,0.5856 13.075,1.2163 15,1.4017 8.66812,0.8347 59.15165,0.5537 70.69553,-0.3936 z M 484.41737,861.10398 C 383.02444,852.27878 289.39327,811.52308 211.99482,742.52428 154.92985,691.65233 115.04226,633.59903 86.84955,560.38506 63.09275,498.69078 53.82044,439.96633 56.863,370.4709 58.30421,337.55214 61.32132,314.51131 67.94303,285.85578 86.72068,204.5953 128.31501,129.45756 188.39257,68.27065 c 26.92825,-27.42549 47.27732,-44.2876 78.0248,-64.65468 49.08239,-32.5121 98.87774,-54.01006 157.45231,-67.97632 21.74006,-5.1836 31.80649,-6.44175 60.04769,-7.50504 48.85109,-1.83926 93.72003,-0.82668 115.4817,2.60614 21.22423,3.34805 57.26962,12.987 80.45538,21.51469 70.07074,25.77194 129.55002,63.40162 179.71072,113.69435 65.8052,65.97831 111.0706,154.26499 126.824,247.36035 4.4692,26.41127 5.6917,40.19313 6.2434,70.38406 0.7336,40.15014 -1.3446,65.29949 -8.2994,100.43408 -26.0242,131.47072 -105.9672,244.326 -221.58225,312.8071 -46.87945,27.7676 -103.85617,48.8103 -157.56002,58.1904 -28.38878,4.9585 -42.46967,6.1434 -77.27353,6.5027 -18.425,0.1903 -38,-0.046 -43.5,-0.5245 z m 62.5,-13.9938 c 30.65146,-1.6849 62.93722,-6.3333 90.16085,-12.981 101.78738,-24.8556 201.71925,-95.7637 264.95225,-188.0009 38.3673,-55.96582 64.4013,-125.04625 73.3003,-194.5 4.1057,-32.04378 4.5528,-75.90127 1.0806,-106 C 964.28667,240.52621 919.66657,147.87326 845.41947,73.62619 773.47562,1.68236 683.90597,-42.95118 586.54071,-55.37592 c -30.72081,-3.92027 -81.7518,-4.42047 -111.62334,-1.09411 -74.10118,8.25157 -135.66389,29.89587 -195.5296,68.74456 -49.22297,31.94228 -100.46049,81.92048 -131.72345,128.48593 -27.01017,40.23101 -52.16353,94.63122 -63.12351,136.5198 -9.52521,36.405 -12.6795,64.69927 -12.6815,113.75443 -0.002,47.51232 2.04522,72.38107 8.02497,97.48701 33.64257,141.24805 117.44415,248.77518 242.74333,311.46788 71.4822,35.7656 146.01208,51.4235 224.28976,47.1206 z m -55.5,-11.6757 c -58.11396,-3.0569 -110.26324,-17.0513 -163,-43.7414 -44.73443,-22.6401 -83.21096,-51.0731 -120.03418,-88.7018 -54.89416,-56.09482 -87.08719,-110.43915 -109.80715,-185.363 -2.50174,-8.25 -5.48585,-19.275 -6.63137,-24.5 -10.07672,-45.96258 -12.76515,-122.51781 -5.95242,-169.5 6.15016,-42.41293 24.90094,-96.83906 49.43835,-143.5 18.20825,-34.62526 42.24636,-64.93393 83.71538,-105.5533 37.50423,-36.73583 64.31806,-56.3298 104.77139,-76.56079 46.96493,-23.4875 95.38804,-37.58115 153,-44.53098 18.3122,-2.20904 74.53695,-2.52327 91.5,-0.51138 28.04297,3.326 57.08315,8.77025 76,14.24795 96.29181,27.88294 176.8674,83.07371 235.6479,161.4085 42.3949,56.49818 69.8908,121.39031 81.7774,193 4.3992,26.50236 5.4618,40.76533 5.4759,73.5 0.016,36.84496 -2.1237,59.99098 -8.3365,90.18535 -24.9252,121.13873 -105.493,230.80365 -215.41016,293.20575 -58.23209,33.0595 -122.2021,52.4052 -187.15454,56.5992 -13.7847,0.89 -50.67675,1.0694 -65,0.3159 z M 694.6837,613.87828 c 0.14649,-14.7125 0.5957,-26.75 0.99826,-26.75 0.40256,0 5.00771,1.89841 10.23367,4.21868 8.7053,3.86507 10.21422,4.2213 18.00174,4.25 7.41764,0.0273 9.26239,-0.343 14.48724,-2.9083 30.92678,-15.18445 31.37393,-64.68457 0.72068,-79.77981 -5.94934,-2.92975 -7.57316,-3.28057 -15.18482,-3.28057 -7.32104,0 -9.77017,0.48358 -17.36533,3.42873 l -8.84222,3.42874 -4.44042,-2.42874 c -4.01641,-2.19681 -5.60705,-2.42873 -16.65778,-2.42873 l -12.21735,0 -0.25918,63.5 c -0.14255,34.925 -0.0395,64.07458 0.22892,64.77685 0.37228,0.97387 3.9932,1.21116 15.25918,1 l 14.77108,-0.27685 z m 9.45632,-44.41092 c -11.18877,-5.51485 -13.1024,-20.51196 -3.80382,-29.81054 10.86014,-10.86014 26.64679,-6.43027 31.04894,8.71259 3.91043,13.45141 -3.41831,22.7161 -17.96777,22.71414 -3.50301,-4.7e-4 -7.36392,-0.67307 -9.27735,-1.61619 z m -389.80444,24.05393 c 1.38239,-0.53047 1.58179,-3.67296 1.58179,-24.92857 0,-20.7772 0.229,-24.55059 1.57143,-25.89301 1.31961,-1.31961 4.65281,-1.57143 20.8,-1.57143 13.62222,0 19.57845,0.34988 20.42857,1.2 0.86854,0.86854 1.2,8.02067 1.2,25.89301 0,21.59431 0.1985,24.76918 1.58179,25.3 0.86998,0.33385 7.37262,0.60699 14.45031,0.60699 10.10464,0 13.04028,-0.30643 13.66821,-1.42673 1.05301,-1.87869 -1.23781,-125.51328 -2.34597,-126.61047 -0.82332,-0.81518 -18.54143,-2.9628 -24.44341,-2.9628 l -2.87717,0 -0.26688,25.75 -0.26688,25.75 -20.92811,0.27083 c -16.07488,0.20803 -21.11515,-0.0239 -21.73469,-1 -0.44361,-0.69896 -0.81347,-12.45687 -0.82189,-26.1287 l -0.0153,-24.85787 -9.75,0.71111 c -5.3625,0.39111 -11.55,1.0087 -13.75,1.37242 l -4,0.66131 -0.62464,15.98545 c -0.34354,8.792 -0.96251,37.299 -1.37547,63.34889 -0.62944,39.70548 -0.52845,47.5043 0.62464,48.23468 1.54968,0.9816 24.84816,1.23333 27.29367,0.29489 z m 127.01036,-0.96444 c 1.34243,-1.34242 1.57143,-5.11581 1.57143,-25.89301 0,-21.25561 0.1994,-24.3981 1.58179,-24.92857 0.86998,-0.33385 8.70818,-0.60699 17.41821,-0.60699 8.71003,0 16.54823,0.27314 17.41821,0.60699 1.38148,0.53012 1.58179,3.64098 1.58179,24.56574 0,14.60303 0.40423,24.71407 1.03518,25.89301 0.94397,1.76382 2.19963,1.93291 14.25,1.91895 7.26815,-0.008 13.78066,-0.37454 14.47223,-0.8136 0.99301,-0.63043 1.20329,-14.34757 1,-65.23469 l -0.25741,-64.4364 -8.29619,0.22389 c -10.54615,0.28462 -15.77317,1.68923 -17.80055,4.78341 -1.13112,1.7263 -1.87152,6.70409 -2.55996,17.21073 -0.53271,8.13008 -1.27788,17.93197 -1.65594,21.78197 l -0.68736,7 -17.92621,0.27379 c -9.85941,0.15059 -18.31087,-0.11087 -18.78101,-0.58101 -0.47014,-0.47014 -1.30181,-8.91834 -1.84815,-18.77379 -1.15459,-20.82742 -2.28019,-26.95374 -5.30641,-28.88134 -2.3545,-1.49974 -14.20975,-3.53765 -20.57977,-3.53765 l -4.05845,0 0,64.91667 c 0,50.99766 0.26802,65.02481 1.25,65.42105 0.6875,0.27741 6.95536,0.53991 13.92857,0.58333 10.26746,0.0639 12.97741,-0.21989 14.25,-1.49248 z m 111.72883,-1.00997 c 2.32592,-1.20277 4.04447,-3.75818 7.42334,-11.03818 5.74387,-12.3755 5.75516,-12.38042 28.41926,-12.38042 22.34381,0 22.81199,0.18799 27.99093,11.23957 5.02513,10.72335 7.43233,12.97318 14.78679,13.82013 6.82553,0.78605 17.23154,-0.45666 18.29997,-2.18541 1.01349,-1.63985 -4.235,-16.08962 -18.93459,-52.12934 -27.93433,-68.48801 -31.61486,-74.74495 -43.96731,-74.74495 -7.94308,0 -10.99805,5.03306 -28.0583,46.22611 -26.77308,64.64529 -33.24784,80.99182 -32.67334,82.48893 0.52817,1.37641 2.13842,1.49938 12.14778,0.92771 7.34561,-0.41954 12.63876,-1.2278 14.56547,-2.22415 z m 26.5926,-46.14062 c -4.59688,-0.30203 -5.75008,-0.71873 -5.75039,-2.07788 -7.2e-4,-3.1321 14.37684,-40.2001 15.59241,-40.2001 1.23694,0 8.14374,18.33247 10.86867,28.84828 1.86585,7.20059 1.94805,10.58169 0.28931,11.90118 -1.51399,1.20434 -13.09937,2.0476 -21,1.52852 z m 16.26323,-123.9183 c 0.45793,-0.47282 1.33477,-10.53468 1.94855,-22.35968 4.09776,-78.9476 7.12698,-103.11953 19.61256,-156.5 6.76871,-28.93875 8.99593,-41.98255 10.50109,-61.5 1.4466,-18.7581 0.68371,-40.114 -2.11807,-59.29188 -1.96168,-13.4275 -10.35734,-49.33285 -11.93097,-51.02468 -0.73509,-0.7903 -88.9612,-2.41712 -148.89844,-2.74557 -21.91666,-0.1201 -29.56032,0.14369 -30.1138,1.03924 -1.14546,1.85339 -9.86811,44.23323 -11.53068,56.02289 -2.22352,15.7675 -2.95217,42.36934 -1.58868,58 1.38282,15.85231 3.09706,26.39081 7.21744,44.37004 8.74291,38.14954 11.21831,51.01351 15.32313,79.62996 3.85086,26.846 5.50426,45.95764 6.57499,76 1.3764,38.61869 1.3818,38.64302 8.74564,39.33978 8.5807,0.8119 135.40521,-0.10035 136.25724,-0.9801 z M 476.47149,397.87828 c -1.49859,-3.62428 -3.1808,-16.36354 -4.06053,-30.75 -3.03498,-49.63215 -5.20607,-64.24816 -15.52551,-104.51947 -8.82923,-34.45576 -12.02012,-52.52673 -14.03432,-79.48053 -2.10522,-28.17186 1.0202,-62.40822 8.14758,-89.25 l 0.99575,-3.75 58.21145,0.01 c 56.13381,0.01 84.99319,1.00015 88.82119,3.04884 1.00229,0.5364 2.26767,2.65513 2.81195,4.70828 1.70528,6.43258 5.07496,31.61857 5.33222,39.8546 l 0.2461,7.87828 -71.5,0.5 -71.5,0.5 0.0647,22.5 c 0.0851,29.63499 1.70745,41.29854 11.37692,81.79477 9.65611,40.44025 11.41262,58.03449 10.90242,109.20523 -0.27133,27.21214 -0.63967,35.02811 -1.74369,37 -2.86447,5.11621 -6.60508,5.44448 -8.54618,0.75 z"
       style="fill:#000000;fill-opacity:1"
       sodipodi:nodetypes="ccccccccccssssssssssssssccssssssssssscssssssssscssssssssssscscssssssssssssssssscsssssssssssssssssssssssssssssssssssssssssscsscscscssssssssssssssssscccscscsscssssssssssscsscsssscssssscssssssssssssssssssssssssssssssssssssscsssscsssscccsssscc" />
    <text
       xml:space="preserve"
       style="font-size:40px;font-style:normal;font-variant:normal;font-weight:bold;font-stretch:normal;line-height:125%;letter-spacing:0px;word-spacing:0px;fill:#000000;fill-opacity:1;stroke:none;font-family:Berlin Sans FB Demi;-inkscape-font-specification:Berlin Sans FB Demi Bold"
       x="278.22971"
       y="732.5415"
       id="text3004"
       sodipodi:linespacing="125%"><tspan
         sodipodi:role="line"
         id="tspan3006"
         x="278.22971"
         y="732.5415"
         style="font-size:130px;font-style:normal;font-variant:normal;font-weight:bold;font-stretch:normal;font-family:Berlin Sans FB Demi;-inkscape-font-specification:Berlin Sans FB Demi Bold;fill:#cfb87c;fill-opacity:1">Boulder</tspan></text>
  </g>
</svg>
